<svg width="162" height="41" viewBox="0 0 162 41" fill="none" xmlns="http://www.w3.org/2000/svg">
<path d="M30.7267 40.0658H13.1628C13.1627 37.7594 13.1629 35.4874 13.1628 33.1982C13.1627 30.909 13.1628 32.7976 13.1628 32.7976C13.1628 32.7976 13.4373 32.7976 13.5405 32.7976C13.6438 32.7976 24.336 32.7633 29.7194 32.7518C34.9273 32.7404 38.6873 31.7846 41.4344 27.5725C46.5908 19.6748 40.3584 10.146 31.3276 10.1689C25.3986 10.1804 19.4657 10.167 13.5291 10.1289C13.4333 10.1282 13.4934 10.1289 13.1629 10.1289C13.1629 9.95306 13.1629 9.80987 13.1629 9.73398V3.22552C13.1629 3.1491 13.1629 3.15254 13.1628 3.04952C13.2657 3.04952 13.4596 3.05103 13.5405 3.04952C18.3631 3.00756 23.178 2.99229 27.9854 3.00374C32.6133 3.019 35.9308 3.33567 37.9376 3.95376C48.9773 7.35321 54.1623 20.4875 48.1932 30.6687C44.5763 36.8419 38.7541 39.9742 30.7267 40.0658Z" fill="#174468"/>
<path d="M0 19.858V19.5719L4.71002 13.5456C4.76697 13.4724 4.83736 13.4132 4.91575 13.3725C4.99414 13.3318 5.07844 13.3107 5.16214 13.3109L21.9877 13.3281C22.0748 13.3282 22.1615 13.3494 22.2409 13.3902C22.3204 13.4309 22.3904 13.4899 22.4456 13.5627L26.9953 19.6062C27.0488 19.6762 27.0744 19.7636 27.067 19.8514C27.0595 19.9392 27.0197 20.0211 26.9553 20.0812L13.9526 32.0022C13.8437 32.1032 13.7006 32.1592 13.552 32.1592C13.4035 32.1592 13.2604 32.1032 13.1514 32.0022L0 19.858ZM7.25103 14.6902C7.18373 14.6918 7.11744 14.7084 7.05753 14.7384C6.99762 14.7684 6.94579 14.811 6.90621 14.8628C6.86664 14.9147 6.84045 14.9742 6.82976 15.0367C6.81908 15.0992 6.82419 15.1628 6.84469 15.2224L7.90345 18.227C7.91365 18.2564 7.93117 18.2827 7.95437 18.3034C7.97757 18.3242 8.00567 18.3387 8.03603 18.3456C8.06638 18.3524 8.09799 18.3515 8.12786 18.3427C8.15774 18.334 8.18489 18.3178 8.20677 18.2956L11.486 15.0507C11.7684 14.7684 11.6997 14.6291 11.28 14.6329L7.25103 14.6902ZM18.9832 18.3872C19.0032 18.4072 19.0279 18.422 19.0551 18.4301C19.0822 18.4382 19.111 18.4395 19.1387 18.4339C19.1665 18.4282 19.1924 18.4157 19.2142 18.3976C19.236 18.3795 19.253 18.3563 19.2636 18.33L20.6714 15.0106C20.6829 14.9843 20.6876 14.9555 20.6851 14.9268C20.6826 14.8982 20.6729 14.8706 20.6569 14.8467C20.641 14.8228 20.6193 14.8032 20.5938 14.7899C20.5684 14.7765 20.5399 14.7698 20.5112 14.7703L15.8012 14.7302C15.7671 14.7296 15.7336 14.7391 15.7049 14.7575C15.6762 14.776 15.6537 14.8026 15.6402 14.8339C15.6267 14.8652 15.6228 14.8998 15.6291 14.9333C15.6353 14.9668 15.6514 14.9977 15.6753 15.0221L18.9832 18.3872ZM9.74053 18.7077C9.71341 18.7349 9.69495 18.7695 9.68748 18.8072C9.68002 18.8449 9.68387 18.8839 9.69856 18.9194C9.71324 18.9549 9.73811 18.9853 9.77002 19.0067C9.80193 19.0281 9.83946 19.0395 9.87788 19.0396L17.2434 19.0282C17.2825 19.0281 17.3207 19.0163 17.353 18.9942C17.3853 18.9721 17.4102 18.9407 17.4244 18.9043C17.4386 18.8678 17.4415 18.8279 17.4327 18.7898C17.4239 18.7516 17.4038 18.717 17.375 18.6905L13.6894 15.148C13.6532 15.1134 13.605 15.094 13.5549 15.094C13.5048 15.094 13.4566 15.1134 13.4204 15.148L9.74053 18.7077ZM6.2495 19.0969C6.29595 19.0961 6.3418 19.0852 6.38338 19.0651C6.42497 19.045 6.46112 19.0163 6.48895 18.9812C6.51677 18.9462 6.53549 18.9058 6.5436 18.8632C6.55171 18.8207 6.54899 18.7772 6.53565 18.7363L5.53413 15.5887C5.42349 15.2453 5.26133 15.2167 5.04768 15.5028L2.72987 18.5589C2.44753 18.9366 2.56199 19.1236 3.07324 19.1197L6.2495 19.0969ZM22.2281 15.7718C22.2098 15.7498 22.1862 15.7327 22.1596 15.7221C22.133 15.7115 22.1041 15.7078 22.0757 15.7112C22.0472 15.7146 22.0201 15.7251 21.9967 15.7417C21.9734 15.7582 21.9545 15.7804 21.9419 15.8061L20.5398 18.8508C20.5283 18.8771 20.5236 18.9059 20.5261 18.9346C20.5287 18.9632 20.5383 18.9908 20.5543 19.0147C20.5702 19.0386 20.592 19.0582 20.6174 19.0715C20.6429 19.0849 20.6713 19.0916 20.7 19.0911L24.4429 18.9709C24.4753 18.9707 24.507 18.9613 24.5342 18.9438C24.5615 18.9264 24.5833 18.9015 24.5971 18.8722C24.6108 18.8429 24.616 18.8103 24.612 18.7781C24.608 18.746 24.595 18.7156 24.5745 18.6905L22.2281 15.7718ZM10.1297 27.2292C10.7211 27.7672 10.8374 27.6794 10.4788 26.966L7.35976 20.7851C7.31849 20.7037 7.25777 20.6351 7.18415 20.5867C7.11053 20.5383 7.0268 20.5119 6.94198 20.5104L3.09614 20.4875C2.85196 20.4875 2.82143 20.5715 3.00457 20.7394L10.1297 27.2292ZM18.2392 20.7279C18.2526 20.7003 18.2589 20.6698 18.2574 20.6392C18.256 20.6085 18.2469 20.5787 18.2309 20.5525C18.215 20.5263 18.1927 20.5045 18.1661 20.4892C18.1396 20.4738 18.1096 20.4654 18.0789 20.4646H9.02515C8.99448 20.4654 8.96449 20.4738 8.93792 20.4892C8.91136 20.5045 8.88908 20.5263 8.87313 20.5525C8.85718 20.5787 8.84806 20.6085 8.84663 20.6392C8.84519 20.6698 8.85148 20.7003 8.86491 20.7279L13.3918 29.4784C13.4076 29.507 13.4308 29.5308 13.459 29.5475C13.4872 29.5641 13.5193 29.5728 13.552 29.5728C13.5848 29.5728 13.6169 29.5641 13.645 29.5475C13.6732 29.5308 13.6964 29.507 13.7123 29.4784L18.2392 20.7279ZM19.8359 20.7909C18.6226 22.9427 17.2777 25.3692 16.3506 27.6527C16.2781 27.8359 16.3143 27.8626 16.4593 27.7328L24.0022 20.8195C24.1739 20.663 24.151 20.5829 23.9335 20.5791L20.2537 20.5104C20.1763 20.5085 20.0963 20.5337 20.0226 20.5832C19.9489 20.6327 19.8843 20.7045 19.8359 20.7909Z" fill="#174468"/>
<path d="M58.1799 9.91133C59.9436 9.91133 61.3734 8.48158 61.3734 6.7179C61.3734 4.95422 59.9436 3.52448 58.1799 3.52448C56.4163 3.52448 54.9865 4.95422 54.9865 6.7179C54.9865 8.48158 56.4163 9.91133 58.1799 9.91133Z" fill="#174468"/>
<path d="M55.3356 34.669C55.0828 34.4161 54.9408 34.0744 54.9407 33.719L54.975 14.112C54.975 14.0316 55.0046 13.9544 55.0571 13.8976C55.1097 13.8407 55.1811 13.8087 55.2554 13.8087L61.0528 13.8144C61.1302 13.8144 61.2045 13.8464 61.2592 13.9033C61.3139 13.9602 61.3447 14.0373 61.3447 14.1178L61.3676 39.0299C61.3673 39.1208 61.3419 39.2084 61.2949 39.281C61.2478 39.3536 61.1813 39.4078 61.1043 39.4363C59.9426 39.8655 56.5717 35.8994 55.3356 34.669Z" fill="#174468"/>
<path d="M73.0024 33.0266L84.3397 33.0037C84.4157 33.0037 84.4889 32.9741 84.5442 32.9209C84.5996 32.8677 84.6329 32.7949 84.6373 32.7176C84.9978 24.9114 85.0608 20.1899 75.9498 20.1785C72.535 20.1785 69.1184 20.1766 65.6999 20.1728C65.6086 20.1727 65.5205 20.1481 65.447 20.1022C65.3736 20.0563 65.3181 19.9911 65.2878 19.9152C64.8414 18.7821 69.2996 14.9019 70.2268 13.9633C70.2901 13.898 70.3653 13.8462 70.4479 13.8108C70.5305 13.7754 70.6188 13.7572 70.7075 13.7573C74.2443 13.7287 78.4736 13.4082 81.5983 14.2838C93.5079 17.6318 91.1672 29.9305 91.0813 39.1502C91.0813 39.2276 91.0512 39.3019 90.9975 39.3566C90.9439 39.4113 90.8711 39.4421 90.7952 39.4421C85.4575 39.5069 80.1504 39.5203 74.8738 39.4821C72.3634 39.4669 70.5473 39.1731 69.4255 38.6008C62.1974 34.9324 64.9673 24.1331 73.1169 24.0701C75.841 24.0511 78.569 24.0415 81.3007 24.0415C84.168 24.0415 78.7826 28.597 78.382 28.969C78.2314 29.1122 78.0327 29.1921 77.8269 29.1922L72.9795 29.1865C72.8856 29.1864 72.7939 29.2047 72.7101 29.2402C72.6263 29.2757 72.5524 29.3276 72.4931 29.3925C71.3981 30.5562 71.4057 31.7008 72.516 32.8263C72.5775 32.8898 72.6523 32.9403 72.7359 32.9747C72.8195 33.0091 72.9101 33.0268 73.0024 33.0266Z" fill="#174468"/>
<path d="M122.192 27.7442C122.226 23.2917 119.673 19.5603 114.746 20.2871C114.667 20.2994 114.594 20.3395 114.542 20.4003C114.489 20.4612 114.46 20.5387 114.46 20.619L114.425 39.11C114.425 39.192 114.396 39.2706 114.343 39.3285C114.291 39.3865 114.219 39.4191 114.145 39.4191L108.348 39.4248C108.271 39.4247 108.198 39.3922 108.143 39.3344C108.089 39.2767 108.057 39.1981 108.056 39.1157L108.021 20.619C108.019 20.5387 107.989 20.4619 107.937 20.403C107.884 20.344 107.812 20.3069 107.735 20.2985C105.709 20.0887 103.706 20.0887 101.726 20.2985C101.649 20.307 101.577 20.3439 101.525 20.4021C101.474 20.4602 101.445 20.5355 101.446 20.6133L101.406 39.11C101.406 39.192 101.376 39.2706 101.323 39.3285C101.271 39.3865 101.2 39.4191 101.125 39.4191H95.3278C95.2504 39.4191 95.1762 39.3871 95.1214 39.3302C95.0667 39.2733 95.0359 39.1962 95.0359 39.1157L95.0131 13.9174C95.0131 13.8719 95.0311 13.8282 95.0633 13.796C95.0955 13.7638 95.1392 13.7457 95.1848 13.7457C100.999 13.7381 106.814 13.7362 112.628 13.74C116.051 13.7438 118.548 14.0242 120.12 14.5813C125.093 16.3325 128.252 20.5618 128.578 25.8613C128.853 30.2794 128.889 34.7014 128.687 39.1272C128.684 39.2086 128.651 39.2857 128.594 39.3422C128.538 39.3988 128.462 39.4304 128.384 39.4305L122.518 39.4248C122.441 39.4247 122.368 39.3929 122.313 39.3362C122.259 39.2794 122.227 39.2024 122.226 39.1215C122.176 35.3176 122.165 31.5251 122.192 27.7442Z" fill="#174468"/>
<path d="M150.555 26.6913L161.606 39.0014C161.9 39.3296 161.831 39.4917 161.4 39.4879L154.538 39.4822C154.448 39.4821 154.359 39.4632 154.276 39.4268C154.193 39.3903 154.119 39.3371 154.057 39.2704L146.617 31.098C146.596 31.0746 146.57 31.0559 146.541 31.0431C146.512 31.0303 146.48 31.0237 146.448 31.0237C146.417 31.0237 146.385 31.0303 146.356 31.0431C146.327 31.0559 146.301 31.0746 146.28 31.098L138.84 39.2876C138.781 39.3541 138.708 39.4074 138.626 39.4439C138.544 39.4804 138.455 39.4993 138.365 39.4993L131.371 39.4822C131.035 39.4822 130.98 39.3582 131.205 39.1102L142.354 26.8401C142.405 26.7821 142.433 26.7068 142.432 26.6287C142.431 26.5506 142.401 26.4751 142.348 26.4166L131.257 14.1866C130.982 13.8852 131.049 13.7344 131.457 13.7344L138.227 13.7173C138.321 13.7172 138.413 13.7355 138.497 13.771C138.581 13.8065 138.654 13.8584 138.714 13.9233L146.205 22.1301C146.229 22.1576 146.259 22.1799 146.291 22.1956C146.324 22.2113 146.36 22.2199 146.395 22.221C146.431 22.2221 146.466 22.2156 146.499 22.2019C146.531 22.1882 146.56 22.1676 146.583 22.1415L153.914 14.095C154.043 13.9552 154.214 13.8693 154.395 13.8546C156.783 13.641 159.158 13.6505 161.52 13.8832C161.718 13.9023 161.753 13.9824 161.623 14.1236L150.566 26.2678C150.512 26.3274 150.482 26.4036 150.48 26.4817C150.477 26.5598 150.504 26.6345 150.555 26.6913Z" fill="#174468"/>
<path d="M144.94 10.3452V3.34521H147.82C148.44 3.34521 148.97 3.44521 149.41 3.64521C149.857 3.84521 150.2 4.13188 150.44 4.50521C150.68 4.87855 150.8 5.32188 150.8 5.83521C150.8 6.34855 150.68 6.79188 150.44 7.16521C150.2 7.53855 149.857 7.82521 149.41 8.02521C148.97 8.22521 148.44 8.32521 147.82 8.32521H145.66L146.24 7.71521V10.3452H144.94ZM146.24 7.85521L145.66 7.22521H147.76C148.333 7.22521 148.763 7.10521 149.05 6.86521C149.343 6.61855 149.49 6.27521 149.49 5.83521C149.49 5.38855 149.343 5.04521 149.05 4.80521C148.763 4.56521 148.333 4.44521 147.76 4.44521H145.66L146.24 3.80521V7.85521ZM151.929 10.3452V5.00521H153.119V6.47521L152.979 6.04521C153.139 5.68521 153.389 5.41188 153.729 5.22521C154.076 5.03855 154.506 4.94521 155.019 4.94521V6.13521C154.966 6.12188 154.916 6.11521 154.869 6.11521C154.823 6.10855 154.776 6.10521 154.729 6.10521C154.256 6.10521 153.879 6.24521 153.599 6.52521C153.319 6.79855 153.179 7.20855 153.179 7.75521V10.3452H151.929ZM158.431 10.4152C157.884 10.4152 157.398 10.2985 156.971 10.0652C156.544 9.82521 156.208 9.49855 155.961 9.08521C155.714 8.67188 155.591 8.20188 155.591 7.67521C155.591 7.14188 155.714 6.67188 155.961 6.26521C156.208 5.85188 156.544 5.52855 156.971 5.29521C157.398 5.06188 157.884 4.94521 158.431 4.94521C158.984 4.94521 159.474 5.06188 159.901 5.29521C160.334 5.52855 160.671 5.84855 160.911 6.25521C161.158 6.66188 161.281 7.13521 161.281 7.67521C161.281 8.20188 161.158 8.67188 160.911 9.08521C160.671 9.49855 160.334 9.82521 159.901 10.0652C159.474 10.2985 158.984 10.4152 158.431 10.4152ZM158.431 9.34521C158.738 9.34521 159.011 9.27855 159.251 9.14521C159.491 9.01188 159.678 8.81855 159.811 8.56521C159.951 8.31188 160.021 8.01521 160.021 7.67521C160.021 7.32855 159.951 7.03188 159.811 6.78521C159.678 6.53188 159.491 6.33855 159.251 6.20521C159.011 6.07188 158.741 6.00521 158.441 6.00521C158.134 6.00521 157.861 6.07188 157.621 6.20521C157.388 6.33855 157.201 6.53188 157.061 6.78521C156.921 7.03188 156.851 7.32855 156.851 7.67521C156.851 8.01521 156.921 8.31188 157.061 8.56521C157.201 8.81855 157.388 9.01188 157.621 9.14521C157.861 9.27855 158.131 9.34521 158.431 9.34521Z" fill="#174468"/>
</svg>
